<svg width="375" height="243" viewBox="0 0 375 243" fill="none" xmlns="http://www.w3.org/2000/svg">
<ellipse cx="194.5" cy="-90.5002" rx="277.5" ry="196.5" transform="matrix(-1 0 0 -1 389 -181)" fill="#324C04"/>
<path d="M370.438 89.4543L358.34 96.9998L353.551 88.5495L348.636 79.9063L340.586 65.3344L348.652 60.3041L357.753 72.4385L364.843 81.5072L370.438 89.4543Z" fill="#324C04"/>
<path d="M370.438 89.4543L366.266 92.0567L362.762 86.3205L359.17 80.4505L353.221 70.5909L356.003 68.8561L362.026 77.4356L366.656 83.8916L370.438 89.4543Z" fill="#536C25"/>
<path d="M280.238 114.25L265.951 115.682L265.886 108.98L265.804 102.12L265.875 90.6206L275.4 89.6663L277.442 99.9091L279.221 107.644L280.238 114.25Z" fill="#324C04"/>
<path d="M280.238 114.25L276.173 114.658L275.862 109.98L275.54 105.191L275.059 97.1719L277.769 96.9003L278.806 104.13L279.656 109.6L280.238 114.25Z" fill="#536C25"/>
<path d="M185.312 138.239L170.952 138.511L171.399 128.867L171.841 118.993L172.79 102.469L182.363 102.288L183.618 117.27L184.801 128.613L185.312 138.239Z" fill="#324C04"/>
<path d="M185.312 138.239L179.749 138.344L179.823 129.654L179.894 120.756L180.093 105.867L183.801 105.797L184.441 119.317L185.015 129.556L185.312 138.239Z" fill="#536C25"/>
<path d="M92.5183 108.743L83.0098 105.558L85.1628 100.791L87.357 95.9079L91.1664 87.7829L97.5053 89.9064L95.4445 97.7625L94.0374 103.764L92.5183 108.743Z" fill="#324C04"/>
<path d="M92.5181 108.743L88.2267 107.306L89.8552 103.292L91.5178 99.1803L94.3621 92.3221L97.223 93.2805L95.2701 99.7272L93.8604 104.633L92.5181 108.743Z" fill="#536C25"/>
<path d="M15.7925 92.9998L2.20983 88.4498L6.02546 79.5412L9.9175 70.4158L16.6271 55.2129L25.6822 58.2462L21.5857 72.738L18.7026 83.7878L15.7925 92.9998Z" fill="#324C04"/>
<path d="M15.7925 92.9998L11.5429 91.5762L14.3757 84.1398L17.2714 76.525L22.1783 63.8043L25.0114 64.7533L21.1773 76.5276L18.342 85.4685L15.7925 92.9998Z" fill="#536C25"/>
<ellipse cx="27.5305" cy="8.25773" rx="27.5305" ry="8.25773" transform="matrix(-0.875343 0.483502 -0.502569 -0.864537 391.891 87.4617)" fill="#324C04"/>
<ellipse cx="27.634" cy="9.7179" rx="27.634" ry="9.7179" transform="matrix(-0.954234 -0.29906 0.313235 -0.949676 36.0691 110.561)" fill="#324C04"/>
<ellipse cx="20.4954" cy="7.34161" rx="20.4954" ry="7.34161" transform="matrix(-0.997943 0.0641002 -0.0674457 -0.997723 294.359 123.945)" fill="#324C04"/>
<ellipse cx="27.6951" cy="10.1246" rx="27.6951" ry="10.1246" transform="matrix(-0.997496 -0.0707265 0.0744144 -0.997227 204.858 150.432)" fill="#324C04"/>
<ellipse cx="16.1331" cy="6.38217" rx="16.1331" ry="6.38217" transform="matrix(-0.969661 -0.244455 0.256447 -0.966558 100.727 119.08)" fill="#324C04"/>
<path d="M196 143.159C196 143.159 184.136 145.288 176.539 144.66C169.114 144.047 158 140.159 158 140.159" stroke="#536C25"/>
<path d="M97 113.182C97 113.182 88.4311 113.429 83.5768 111.587C78.8322 109.786 72.6738 104.106 72.6738 104.106" stroke="#536C25"/>
<path d="M33.0001 99.1858C33.0001 99.1858 21.0078 100.401 13.4814 99.1943C6.12504 98.0148 -4.659 93.2878 -4.659 93.2878" stroke="#536C25"/>
<path d="M381.429 85.8166C381.429 85.8166 373.046 94.4775 366.515 98.4077C360.131 102.249 348.84 105.589 348.84 105.589" stroke="#536C25"/>
<path d="M288.64 117.333C288.64 117.333 279.063 121.893 272.561 122.528C266.206 123.149 256.143 120.671 256.143 120.671" stroke="#536C25"/>
<path d="M49.8955 160.301L50.2722 159.375L50.7358 159.564C53.6639 160.755 56.2929 161.152 59.0693 160.798C59.0503 159.733 58.6834 158.695 58.0007 157.808C57.0949 156.631 55.7348 155.826 54.0682 155.481C52.6019 155.177 51.4739 155.41 50.2794 155.656C49.6239 155.791 48.945 155.931 48.1683 155.989C46.7426 156.096 44.9596 155.463 44.9418 155.457L43.9655 155.106L44.2989 156.089C44.3248 156.164 44.9452 157.969 46.3797 160.235C47.8957 162.631 49.6014 164.211 51.4487 164.929C52.9474 165.512 54.6101 165.512 56.0472 164.956C56.3183 164.851 56.5811 164.726 56.8335 164.582C57.9782 163.928 58.7535 162.926 58.9801 161.817C56.1092 162.147 53.3819 161.719 50.3579 160.49L49.8955 160.301Z" fill="#536C25"/>
<path d="M60.6074 160.53C60.0877 160.644 59.576 160.733 59.0692 160.797C59.0744 161.094 59.053 161.39 59.0053 161.683C58.9978 161.727 58.9893 161.772 58.9804 161.817C59.5992 161.745 60.2139 161.641 60.8221 161.506L61.3107 161.399L61.0956 160.422L60.6074 160.53Z" fill="#536C25"/>
<path d="M266.988 231.438L266.955 232.239L266.554 232.223C264.022 232.12 261.931 232.535 259.933 233.556C260.236 234.355 260.795 235.038 261.551 235.522C262.555 236.163 263.799 236.401 265.15 236.208C266.339 236.039 267.127 235.557 267.961 235.047C268.418 234.767 268.893 234.476 269.463 234.221C270.509 233.753 272.026 233.746 272.041 233.746L272.873 233.745L272.354 233.095C272.314 233.045 271.356 231.852 269.658 230.533C267.863 229.138 266.147 228.409 264.558 228.369C263.27 228.337 262.015 228.789 261.082 229.599C260.906 229.752 260.742 229.917 260.591 230.095C259.905 230.899 259.593 231.866 259.723 232.764C261.799 231.734 263.972 231.316 266.588 231.421L266.988 231.438Z" fill="#536C25"/>
<path d="M258.845 234.177C259.206 233.95 259.568 233.744 259.933 233.557C259.849 233.335 259.784 233.106 259.741 232.872C259.734 232.836 259.728 232.8 259.723 232.764C259.276 232.987 258.84 233.232 258.418 233.499L258.079 233.713L258.506 234.391L258.845 234.177Z" fill="#536C25"/>
<path d="M210.118 192.849L209.054 191.768L209.596 191.236C213.013 187.874 215.144 184.452 216.318 180.374C214.824 179.761 213.158 179.648 211.513 180.066C209.33 180.621 207.393 182.031 205.912 184.145C204.608 186.004 204.254 187.714 203.88 189.525C203.674 190.519 203.462 191.548 203.076 192.665C202.369 194.714 200.418 196.817 200.399 196.838L199.323 197.987L200.892 198.113C201.013 198.122 203.898 198.341 207.915 197.705C212.161 197.032 215.385 195.606 217.495 193.465C219.206 191.728 220.204 189.413 220.293 187.078C220.31 186.638 220.294 186.197 220.245 185.759C220.021 183.772 219.091 182.091 217.683 181.109C216.42 185.305 214.186 188.846 210.658 192.318L210.118 192.849Z" fill="#536C25"/>
<path d="M216.868 178.07C216.715 178.863 216.532 179.629 216.317 180.373C216.733 180.544 217.132 180.751 217.511 180.993C217.569 181.031 217.626 181.069 217.683 181.109C217.954 180.204 218.179 179.286 218.356 178.358L218.5 177.613L217.011 177.326L216.868 178.07Z" fill="#536C25"/>
<path d="M334.401 168.833L335.081 168.1L335.448 168.441C337.766 170.59 340.085 171.891 342.807 172.542C343.165 171.539 343.189 170.438 342.864 169.367C342.433 167.946 341.445 166.712 340.009 165.8C338.745 164.997 337.607 164.816 336.403 164.624C335.742 164.518 335.057 164.409 334.31 164.189C332.939 163.785 331.495 162.563 331.48 162.551L330.691 161.877L330.656 162.914C330.653 162.994 330.595 164.901 331.136 167.528C331.707 170.305 332.744 172.386 334.218 173.712C335.414 174.786 336.969 175.374 338.51 175.362C338.8 175.36 339.09 175.337 339.377 175.291C340.679 175.083 341.759 174.42 342.363 173.463C339.561 172.757 337.161 171.393 334.767 169.173L334.401 168.833Z" fill="#536C25"/>
<path d="M344.34 172.834C343.814 172.758 343.304 172.66 342.807 172.541C342.707 172.82 342.582 173.09 342.434 173.347C342.411 173.386 342.387 173.425 342.363 173.463C342.968 173.615 343.579 173.735 344.196 173.824L344.691 173.896L344.835 172.907L344.34 172.834Z" fill="#536C25"/>
<path d="M103.637 207.069L104.317 206.336L104.683 206.676C107.001 208.826 109.32 210.127 112.042 210.778C112.401 209.775 112.425 208.674 112.1 207.603C111.669 206.181 110.681 204.948 109.244 204.035C107.98 203.233 106.843 203.051 105.638 202.859C104.978 202.754 104.293 202.645 103.546 202.425C102.175 202.02 100.73 200.798 100.716 200.786L99.9268 200.112L99.8911 201.15C99.8886 201.23 99.831 203.137 100.371 205.764C100.943 208.541 101.979 210.622 103.453 211.947C104.649 213.022 106.204 213.61 107.745 213.598C108.036 213.596 108.326 213.572 108.613 213.527C109.915 213.319 110.995 212.656 111.599 211.699C108.796 210.993 106.396 209.628 104.003 207.409L103.637 207.069Z" fill="#536C25"/>
<path d="M113.576 211.07C113.049 210.993 112.539 210.896 112.042 210.777C111.942 211.056 111.818 211.325 111.67 211.582C111.647 211.621 111.623 211.66 111.599 211.699C112.203 211.85 112.815 211.971 113.432 212.059L113.926 212.132L114.071 211.142L113.576 211.07Z" fill="#536C25"/>
</svg>
