<svg width="375" height="324" viewBox="0 0 375 324" fill="none" xmlns="http://www.w3.org/2000/svg">
<path d="M404.327 211.196C334.438 94.4132 234.099 175.788 147.212 208.291C60.3249 240.795 -71.4344 227.465 -45.7881 194.928C-45.7881 179.204 24.3345 226.863 161.316 172.848C283.143 83.9516 415.229 135.664 404.327 211.196Z" fill="#E7B343"/>
<path d="M401.714 206.623C339.57 64.2336 234.06 155.246 145.179 189.022C56.2978 222.798 -74.3897 199.731 -46.6541 162.544C-45.6256 143.89 21.2733 204.289 161.58 147.752C289.037 48.9988 417.54 117.618 401.714 206.623Z" fill="#3A5015"/>
<g filter="url(#filter0_d_1041_397)">
<rect x="93" y="31" width="172.368" height="285.001" rx="10" fill="#FEFFF0"/>
<rect x="98" y="36" width="162.368" height="275.001" rx="5" stroke="#3A5015" stroke-width="10"/>
</g>
<g filter="url(#filter1_d_1041_397)">
<path d="M125 139.194V135.443C125 132.714 125.768 130.037 127.223 127.694C128.679 125.352 130.767 123.432 133.266 122.139L172.551 101.805C174.841 100.62 177.4 100 180 100C182.6 100 185.159 100.62 187.449 101.805L226.734 122.139C229.233 123.432 231.321 125.352 232.777 127.694C234.232 130.037 235 132.714 235 135.443V139.194L190.864 164L187.449 162.232C185.159 161.048 182.6 160.428 180 160.428C177.4 160.428 174.841 161.048 172.551 162.232L169.136 164L125 139.194Z" fill="#E7B343"/>
</g>
<rect x="131" y="117" width="97" height="58" rx="10" fill="#FEFCF0"/>
<path d="M158.728 138.16L156.16 154H153.4L155.944 138.16H158.728ZM159.856 147.736V150.184H145.624V147.736H159.856ZM152.848 138.16L150.304 154H147.52L150.064 138.16H152.848ZM160.888 141.976V144.424H146.656V141.976H160.888ZM175.251 138.16L172.683 154H169.923L172.467 138.16H175.251ZM176.379 147.736V150.184H162.147V147.736H176.379ZM169.371 138.16L166.827 154H164.043L166.587 138.16H169.371ZM177.411 141.976V144.424H163.179V141.976H177.411ZM191.775 138.16L189.207 154H186.447L188.991 138.16H191.775ZM192.903 147.736V150.184H178.671V147.736H192.903ZM185.895 138.16L183.351 154H180.567L183.111 138.16H185.895ZM193.935 141.976V144.424H179.703V141.976H193.935ZM208.298 138.16L205.73 154H202.97L205.514 138.16H208.298ZM209.426 147.736V150.184H195.194V147.736H209.426ZM202.418 138.16L199.874 154H197.09L199.634 138.16H202.418ZM210.458 141.976V144.424H196.226V141.976H210.458Z" fill="#3A5015"/>
<g filter="url(#filter2_d_1041_397)">
<path d="M219.286 205C223.453 205 227.45 203.388 230.397 200.518C233.344 197.648 235 193.755 235 189.697V148L198.967 168.517L217.222 178.086C217.676 178.325 218.078 178.648 218.404 179.038C218.73 179.428 218.974 179.876 219.122 180.357C219.27 180.839 219.32 181.344 219.267 181.844C219.215 182.344 219.062 182.829 218.817 183.272C218.572 183.714 218.24 184.105 217.84 184.423C217.44 184.74 216.979 184.978 216.485 185.122C215.991 185.267 215.472 185.315 214.958 185.264C214.445 185.213 213.947 185.064 213.492 184.825L183.724 169.216C182.58 168.616 181.3 168.301 180 168.301C178.7 168.301 177.42 168.616 176.276 169.216L146.508 184.825C145.593 185.286 144.528 185.379 143.544 185.083C142.559 184.787 141.733 184.127 141.244 183.244C140.755 182.36 140.642 181.326 140.929 180.362C141.216 179.398 141.88 178.583 142.778 178.092L161.033 168.517L125 148V189.697C125 193.755 126.656 197.648 129.603 200.518C132.55 203.388 136.547 205 140.714 205H219.286Z" fill="#E7B343"/>
</g>
<line x1="141.545" y1="55.6119" x2="217.089" y2="55.6119" stroke="#3A5015" stroke-width="5"/>
<circle cx="180.5" cy="280.5" r="15" fill="#3A5015" stroke="#3A5015" stroke-width="5"/>
<defs>
<filter id="filter0_d_1041_397" x="89" y="31" width="180.368" height="293.001" filterUnits="userSpaceOnUse" color-interpolation-filters="sRGB">
<feFlood flood-opacity="0" result="BackgroundImageFix"/>
<feColorMatrix in="SourceAlpha" type="matrix" values="0 0 0 0 0 0 0 0 0 0 0 0 0 0 0 0 0 0 127 0" result="hardAlpha"/>
<feOffset dy="4"/>
<feGaussianBlur stdDeviation="2"/>
<feComposite in2="hardAlpha" operator="out"/>
<feColorMatrix type="matrix" values="0 0 0 0 0 0 0 0 0 0 0 0 0 0 0 0 0 0 0.25 0"/>
<feBlend mode="normal" in2="BackgroundImageFix" result="effect1_dropShadow_1041_397"/>
<feBlend mode="normal" in="SourceGraphic" in2="effect1_dropShadow_1041_397" result="shape"/>
</filter>
<filter id="filter1_d_1041_397" x="121" y="100" width="118" height="72" filterUnits="userSpaceOnUse" color-interpolation-filters="sRGB">
<feFlood flood-opacity="0" result="BackgroundImageFix"/>
<feColorMatrix in="SourceAlpha" type="matrix" values="0 0 0 0 0 0 0 0 0 0 0 0 0 0 0 0 0 0 127 0" result="hardAlpha"/>
<feOffset dy="4"/>
<feGaussianBlur stdDeviation="2"/>
<feComposite in2="hardAlpha" operator="out"/>
<feColorMatrix type="matrix" values="0 0 0 0 0 0 0 0 0 0 0 0 0 0 0 0 0 0 0.25 0"/>
<feBlend mode="normal" in2="BackgroundImageFix" result="effect1_dropShadow_1041_397"/>
<feBlend mode="normal" in="SourceGraphic" in2="effect1_dropShadow_1041_397" result="shape"/>
</filter>
<filter id="filter2_d_1041_397" x="121" y="148" width="118" height="65" filterUnits="userSpaceOnUse" color-interpolation-filters="sRGB">
<feFlood flood-opacity="0" result="BackgroundImageFix"/>
<feColorMatrix in="SourceAlpha" type="matrix" values="0 0 0 0 0 0 0 0 0 0 0 0 0 0 0 0 0 0 127 0" result="hardAlpha"/>
<feOffset dy="4"/>
<feGaussianBlur stdDeviation="2"/>
<feComposite in2="hardAlpha" operator="out"/>
<feColorMatrix type="matrix" values="0 0 0 0 0 0 0 0 0 0 0 0 0 0 0 0 0 0 0.25 0"/>
<feBlend mode="normal" in2="BackgroundImageFix" result="effect1_dropShadow_1041_397"/>
<feBlend mode="normal" in="SourceGraphic" in2="effect1_dropShadow_1041_397" result="shape"/>
</filter>
</defs>
</svg>
